<svg width="60" height="61" viewBox="0 0 60 61" fill="none" xmlns="http://www.w3.org/2000/svg">
<g clip-path="url(#clip0)">
<path d="M38.276 15.5947C39.8914 15.5947 41.2057 14.2804 41.2057 12.665C41.2057 11.0495 39.8914 9.73517 38.276 9.73517C36.6606 9.73517 35.3463 11.0495 35.3463 12.665C35.3463 13.3247 35.5657 13.9341 35.9352 14.4244L31.1216 21.1511C30.8343 21.0568 30.5279 21.005 30.2094 21.005C29.4396 21.005 28.7386 21.3039 28.2152 21.7912L25.0067 19.9706C25.0495 19.7718 25.0725 19.5658 25.0725 19.3545C25.0725 17.7391 23.7582 16.4248 22.1428 16.4248C20.5273 16.4248 19.2131 17.7391 19.2131 19.3545C19.2131 19.5658 19.2361 19.7718 19.2788 19.9706L16.0704 21.7912C15.547 21.3039 14.846 21.0051 14.0762 21.0051C12.4607 21.0051 11.1465 22.3195 11.1465 23.9349C11.1465 25.5503 12.4607 26.8647 14.0762 26.8647C15.6916 26.8647 17.0059 25.5503 17.0059 23.9349C17.0059 23.7236 16.9829 23.5176 16.9401 23.3188L20.1486 21.4982C20.672 21.9855 21.373 22.2844 22.1428 22.2844C22.9126 22.2844 23.6135 21.9855 24.137 21.4983L27.3454 23.319C27.3027 23.5177 27.2797 23.7237 27.2797 23.935C27.2797 25.5504 28.594 26.8648 30.2094 26.8648C31.8249 26.8648 33.1392 25.5504 33.1392 23.935C33.1392 23.2751 32.9197 22.6656 32.5502 22.1753L37.3638 15.4486C37.6509 15.5429 37.9575 15.5947 38.276 15.5947ZM38.276 11.493C38.9222 11.493 39.4479 12.0187 39.4479 12.665C39.4479 13.3111 38.9222 13.8368 38.276 13.8368C37.6298 13.8368 37.1041 13.3111 37.1041 12.665C37.104 12.0187 37.6297 11.493 38.276 11.493ZM14.0758 25.1067C13.4296 25.1067 12.9039 24.581 12.9039 23.9347C12.9039 23.2884 13.4296 22.7627 14.0758 22.7627C14.722 22.7627 15.2477 23.2884 15.2477 23.9347C15.2477 24.581 14.722 25.1067 14.0758 25.1067ZM22.1425 20.5264C21.4964 20.5264 20.9707 20.0007 20.9707 19.3544C20.9707 18.7082 21.4964 18.1825 22.1425 18.1825C22.7887 18.1825 23.3144 18.7082 23.3144 19.3544C23.3145 20.0007 22.7887 20.5264 22.1425 20.5264ZM30.2093 25.1067C29.5631 25.1067 29.0374 24.581 29.0374 23.9347C29.0374 23.2884 29.5631 22.7627 30.2093 22.7627C30.8556 22.7627 31.3813 23.2884 31.3813 23.9347C31.3813 24.581 30.8554 25.1067 30.2093 25.1067Z" fill="#E20000"/>
<path d="M49.0777 44.177H42.927H9.42516H2.48613C2.08453 44.177 1.75781 43.8503 1.75781 43.4487V7.18865C1.75781 6.78705 2.08453 6.46033 2.48613 6.46033H6.62941C7.1148 6.46033 7.50832 6.06693 7.50832 5.58142C7.50832 5.09591 7.1148 4.70251 6.62941 4.70251H2.48613C1.11527 4.70251 0 5.81779 0 7.18865V43.4487C0 44.8195 1.11527 45.9348 2.48613 45.9348H8.54625V47.8691C8.54625 48.971 9.44273 49.8675 10.5446 49.8675H19.3424L15.201 57.9532C14.9797 58.3853 15.1505 58.9149 15.5825 59.1362C15.7107 59.202 15.8476 59.233 15.9825 59.233C16.3018 59.233 16.6099 59.0584 16.7654 58.7545L21.3173 49.8675H31.0348L35.5867 58.7545C35.7423 59.0584 36.0503 59.233 36.3696 59.233C36.5045 59.233 36.6414 59.2017 36.7696 59.1362C37.2016 58.9149 37.3725 58.3853 37.1511 57.9532L33.0097 49.8675H41.8075C42.9094 49.8675 43.8059 48.9711 43.8059 47.8691V45.9348H49.0777C49.563 45.9348 49.9566 45.5414 49.9566 45.0559C49.9566 44.5704 49.563 44.177 49.0777 44.177ZM42.048 47.8691C42.048 48.0018 41.9401 48.1097 41.8075 48.1097H10.5446C10.412 48.1097 10.3041 48.0018 10.3041 47.8691V45.9348H42.048V47.8691Z" fill="#E20000"/>
<path d="M10.1455 6.46035H22.1774H30.1756H49.8663C50.2679 6.46035 50.5947 6.78707 50.5947 7.18867V15.5454C50.5947 16.0309 50.9882 16.4243 51.4736 16.4243C51.959 16.4243 52.3525 16.0309 52.3525 15.5454V7.18867C52.3525 5.81781 51.2372 4.70254 49.8663 4.70254H31.0546V2.97496C31.0546 1.75914 30.0654 0.769958 28.8495 0.769958H23.5036C22.2878 0.769958 21.2985 1.75914 21.2985 2.97496V4.70254H10.1455C9.66012 4.70254 9.2666 5.09594 9.2666 5.58144C9.2666 6.06695 9.66012 6.46035 10.1455 6.46035ZM23.0563 2.97496C23.0563 2.7284 23.2569 2.52777 23.5036 2.52777H28.8495C29.096 2.52777 29.2968 2.7284 29.2968 2.97496V4.70254H23.0564V2.97496H23.0563Z" fill="#E20000"/>
<path d="M12.293 31.358C11.8076 31.358 11.4141 31.7514 11.4141 32.2369V40.0032C11.4141 40.4887 11.8076 40.8821 12.293 40.8821H15.8586C16.344 40.8821 16.7375 40.4887 16.7375 40.0032V32.2369C16.7375 31.7514 16.344 31.358 15.8586 31.358H12.293ZM14.9797 39.1244H13.1719V33.116H14.9797V39.1244Z" fill="#E20000"/>
<path d="M20.3594 26.8664C19.874 26.8664 19.4805 27.2598 19.4805 27.7453V40.0032C19.4805 40.4887 19.874 40.8821 20.3594 40.8821H23.925C24.4104 40.8821 24.8039 40.4887 24.8039 40.0032V27.7453C24.8039 27.2598 24.4104 26.8664 23.925 26.8664H20.3594ZM23.0462 39.1243H21.2384V28.6242H23.0462V39.1243Z" fill="#E20000"/>
<path d="M28.4268 31.358C27.9414 31.358 27.5479 31.7514 27.5479 32.2369V40.0032C27.5479 40.4887 27.9414 40.8821 28.4268 40.8821H31.9924C32.4778 40.8821 32.8713 40.4887 32.8713 40.0032V32.2369C32.8713 31.7514 32.4778 31.358 31.9924 31.358H28.4268ZM31.1135 39.1244H29.3057V33.116H31.1135V39.1244Z" fill="#E20000"/>
<path d="M36.4932 36.5443C36.0078 36.5443 35.6143 36.9376 35.6143 37.4232V40.0033C35.6143 40.4888 36.0078 40.8822 36.4932 40.8822H40.0588C40.5442 40.8822 40.9377 40.4888 40.9377 40.0033C40.9377 39.5178 40.5442 39.1244 40.0588 39.1244H37.3721V37.4232C37.3721 36.9376 36.9786 36.5443 36.4932 36.5443Z" fill="#E20000"/>
<path d="M59.5518 45.0037L54.5096 36.2701C55.787 34.9085 56.7173 33.2448 57.2141 31.3905C58.0083 28.4267 57.6007 25.3309 56.0665 22.6736C52.8994 17.1877 45.8598 15.3018 40.3743 18.4688C34.8886 21.6358 33.0025 28.6753 36.1696 34.161C37.7038 36.8183 40.1811 38.7191 43.1448 39.5134C44.1346 39.7786 45.1388 39.9098 46.1366 39.9098C47.0088 39.9098 47.8758 39.8094 48.7238 39.6109L53.765 48.3447C54.3829 49.4154 55.5081 50.0146 56.6638 50.0145C57.2302 50.0145 57.804 49.8705 58.3288 49.5676C59.3596 48.9727 60 47.8633 60 46.6724C60 46.0889 59.8451 45.512 59.5518 45.0037ZM43.5998 37.8155C41.0895 37.1428 38.9913 35.5328 37.6918 33.2821C35.0093 28.6358 36.607 22.6736 41.2531 19.991C42.7816 19.1086 44.4518 18.6896 46.1016 18.6896C49.4666 18.6896 52.7441 20.4348 54.5441 23.5525C55.8435 25.8032 56.1888 28.4251 55.5161 30.9355C54.8434 33.4459 53.2334 35.5439 50.9827 36.8434C48.7321 38.1429 46.1102 38.4879 43.5998 37.8155ZM57.4503 48.0451C56.6941 48.4818 55.7238 48.2219 55.2875 47.466L50.4373 39.0632C50.9234 38.8648 51.3994 38.6328 51.8618 38.3658C52.3246 38.0986 52.7629 37.8012 53.1779 37.4792L58.0294 45.8823C58.1686 46.1239 58.2422 46.3971 58.2422 46.6725C58.2422 47.2371 57.9387 47.7632 57.4503 48.0451Z" fill="#E20000"/>
<path d="M54.087 30.8933C54.7075 28.8946 54.5597 26.7547 53.6708 24.868C53.4639 24.4288 52.9403 24.2406 52.5012 24.4474C52.062 24.6544 51.8738 25.178 52.0807 25.6171C52.7818 27.1054 52.8982 28.7939 52.4083 30.372C51.9156 31.9587 50.8513 33.2903 49.4114 34.1216C47.8877 35.0014 46.1125 35.2349 44.4131 34.7796C42.7137 34.3242 41.2931 33.2343 40.4135 31.7106C38.5975 28.5652 39.6791 24.5288 42.8245 22.7127C45.1243 21.3851 47.9784 21.5625 50.0961 23.1647C50.4833 23.4577 51.0345 23.3814 51.3273 22.9942C51.6202 22.6071 51.5439 22.0559 51.1567 21.763C48.4741 19.7332 44.8584 19.5086 41.9455 21.1903C40.0152 22.3048 38.6344 24.1043 38.0575 26.2573C37.4805 28.4102 37.7767 30.6591 38.8911 32.5894C40.0056 34.5198 41.8051 35.9005 43.9581 36.4775C44.677 36.6702 45.4066 36.7655 46.1314 36.7655C47.5773 36.7655 49.0045 36.3862 50.2902 35.6439C52.1145 34.5908 53.4628 32.9038 54.087 30.8933Z" fill="#E20000"/>
</g>
<defs>
<clipPath id="clip0">
<rect width="60" height="60" fill="white" transform="translate(0 0.00146484)"/>
</clipPath>
</defs>
</svg>
