<svg width="160" height="56" viewBox="0 0 160 56" fill="none" xmlns="http://www.w3.org/2000/svg">
<path d="M12.8913 37.5427C10.4145 33.6122 9.5422 28.8864 10.4592 24.3663C11.3761 19.8463 14.0103 15.8871 17.8036 13.3277C17.7574 13.2543 17.7111 13.1808 17.6614 13.1019C17.3359 12.5385 16.8799 12.0616 16.3329 11.7125C12.2141 14.591 9.36251 18.9573 8.35933 23.9214C7.35621 28.8855 8.27704 34.0737 10.9341 38.4284C13.5912 42.7831 17.7846 45.9765 22.6594 47.3577C27.5342 48.7388 32.7235 48.2037 37.1695 45.8615C37.183 45.0964 37.0348 44.3349 36.7347 43.6276C32.7918 45.9023 28.1059 46.5392 23.6604 45.4047C19.2148 44.2702 15.3551 41.4524 12.8913 37.5427Z" fill="#E20000"/>
<path d="M19.6727 12.1954C23.7128 10.1603 28.3491 9.6822 32.676 10.8544C37.0029 12.0267 40.7094 14.765 43.0715 18.5346C45.4336 22.3041 46.2817 26.834 45.4501 31.2395C44.6183 35.6448 42.1666 39.6092 38.5738 42.3581L38.7263 42.6001C39.0524 43.1843 39.2607 43.8272 39.3398 44.4935C43.5565 41.4865 46.4864 37.016 47.5342 31.9903C48.582 26.9644 47.6692 21.7604 44.9812 17.4351C42.2932 13.1098 38.0316 9.98781 33.0622 8.70326C28.0927 7.41875 22.7882 8.06806 18.226 10.5193C18.6348 10.778 18.9859 11.1162 19.2587 11.5139C19.4115 11.7318 19.5499 11.9594 19.6727 12.1954Z" fill="#0A0A52"/>
<path d="M22.8688 40.9169C19.553 39.612 16.8522 37.1181 15.3263 33.9528C13.8006 30.7874 13.5669 27.1934 14.674 23.9164C13.8697 23.8949 13.1609 23.9178 12.4072 23.8304C11.3202 27.5832 11.7215 31.6273 13.5316 35.1619C15.3417 38.6965 18.4288 41.4641 22.1816 42.9168C25.9344 44.3694 30.0793 44.4011 33.7959 43.0057C37.5123 41.6103 40.5295 38.8894 42.2499 35.3818C41.6754 34.8574 41.1684 34.3046 40.5591 33.8144C39.1829 37.0381 36.5646 39.5837 33.261 40.9101C29.9574 42.2364 26.2291 42.2389 22.8688 40.9169Z" fill="#0A0A52"/>
<path d="M33.0321 15.0913C36.1307 16.3076 38.6907 18.5911 40.2427 21.5237C41.7949 24.4562 42.2352 27.8413 41.4832 31.0585C42.1261 31.5845 42.5975 32.197 43.2629 32.8089C44.5027 28.9344 44.1998 24.7272 42.4166 21.0524C40.6334 17.3776 37.5054 14.5148 33.6761 13.0528C29.8468 11.5907 25.6073 11.6406 21.8296 13.1921C18.0519 14.7437 15.0232 17.6789 13.3665 21.3941C14.1751 21.4859 14.9912 21.4841 15.7985 21.3887C17.3841 18.4164 20.0156 16.1328 23.1929 14.9718C26.3702 13.8107 29.8718 13.8532 33.0321 15.0913Z" fill="#E20000"/>
<path d="M21.1492 35.8832C21.3984 35.5197 21.6736 35.1747 21.9723 34.8512C20.4288 33.4811 19.4132 31.6017 19.0985 29.5336C18.784 27.4656 19.1898 25.3368 20.247 23.5105C21.3043 21.6841 22.9473 20.2731 24.8961 19.5182C26.8448 18.7633 28.9786 18.7111 30.9335 19.3705C31.0359 18.7729 31.1766 18.182 31.3547 17.6014C31.4032 17.4402 31.4603 17.2835 31.5106 17.1457C29.0462 16.3604 26.3718 16.4717 23.9449 17.4607C21.5179 18.4497 19.489 20.2548 18.205 22.5676C16.921 24.8805 16.4617 27.5572 16.9054 30.1404C17.3492 32.7236 18.6686 35.0528 20.638 36.7298C20.7927 36.4383 20.9633 36.1557 21.1492 35.8832Z" fill="#E20000"/>
<path d="M35.8007 32.3012C34.686 34.3192 32.8434 35.8335 30.6566 36.5289C28.4699 37.2243 26.1076 37.047 24.0618 36.0342C23.4667 36.5293 22.8566 37.138 22.6151 37.8208L22.6291 37.8286C25.1963 39.2642 28.2343 39.6111 31.0745 38.793C33.9148 37.9749 36.3248 36.0587 37.7743 33.466C39.2239 30.8733 39.5943 27.8165 38.804 24.9679C38.0137 22.1194 36.1274 19.7126 33.5602 18.2769C33.2985 19.0264 33.1162 19.8009 33.0165 20.5877C34.8575 21.8235 36.1649 23.7122 36.6803 25.8809C37.1958 28.0496 36.8819 30.3405 35.8007 32.3012Z" fill="#0A0A52"/>
<path fill-rule="evenodd" clip-rule="evenodd" d="M79.7758 21.3119C80.4072 21.3119 80.8979 21.1327 81.2478 20.7743C81.5976 20.4159 81.7726 19.9466 81.7726 19.3663V19.2383C81.7726 18.6581 81.5976 18.1887 81.2478 17.8303C80.8979 17.4719 80.4072 17.2927 79.7758 17.2927C79.1443 17.2927 78.6536 17.4719 78.3038 17.8303C77.9539 18.1887 77.779 18.6581 77.779 19.2383V19.3663C77.779 19.9466 77.9539 20.4159 78.3038 20.7743C78.6536 21.1327 79.1443 21.3119 79.7758 21.3119ZM67.3854 35.2639V36.7999H59.5518V35.2639H61.3694V20.4671H59.5518V18.9311H68.9726C70.7816 18.9311 72.1384 19.3407 73.043 20.1599C73.9475 20.9791 74.3998 22.1909 74.3998 23.7951C74.3998 25.3994 73.9134 26.6495 72.9406 27.5455C71.9678 28.4415 70.5854 28.8895 68.7934 28.8895H64.9534V35.2639H67.3854ZM64.9534 27.1999H67.923C68.8104 27.1999 69.4974 26.9695 69.9838 26.5087C70.4702 26.0479 70.7134 25.3909 70.7134 24.5375V23.2575C70.7134 22.4042 70.4702 21.7471 69.9838 21.2863C69.4974 20.8255 68.8104 20.5951 67.923 20.5951H64.9534V27.1999ZM83.1038 35.2639V36.7999H76.4734V35.2639H78.1118V25.7663L76.4734 25.4335V24.1535L81.4654 23.1295V35.2639H83.1038ZM91.2446 36.7999V35.2639H89.6062V17.3439L84.6142 18.3679V19.6479L86.2526 19.9807V35.2639H84.6142V36.7999H91.2446ZM97.811 20.7743C97.4611 21.1327 96.9704 21.3119 96.339 21.3119C95.7075 21.3119 95.2168 21.1327 94.867 20.7743C94.5171 20.4159 94.3422 19.9466 94.3422 19.3663V19.2383C94.3422 18.6581 94.5171 18.1887 94.867 17.8303C95.2168 17.4719 95.7075 17.2927 96.339 17.2927C96.9704 17.2927 97.4611 17.4719 97.811 17.8303C98.1608 18.1887 98.3358 18.6581 98.3358 19.2383V19.3663C98.3358 19.9466 98.1608 20.4159 97.811 20.7743ZM99.667 36.7999V35.2639H98.0286V23.1295L93.0366 24.1535V25.4335L94.675 25.7663V35.2639H93.0366V36.7999H99.667ZM112.672 41.0495C111.511 41.8346 109.753 42.2271 107.398 42.2271C106.203 42.2271 105.209 42.1589 104.416 42.0223C103.622 41.8858 102.982 41.6853 102.496 41.4207C102.009 41.1562 101.664 40.8362 101.459 40.4607C101.254 40.0853 101.152 39.6671 101.152 39.2063C101.152 38.5578 101.433 38.0202 101.997 37.5935C102.56 37.1669 103.225 36.8853 103.993 36.7487V36.6463C103.413 36.5098 102.952 36.2325 102.611 35.8143C102.27 35.3962 102.099 34.8629 102.099 34.2143C102.099 33.4634 102.346 32.8746 102.841 32.4479C103.336 32.0213 103.934 31.7311 104.633 31.5775V31.4495C103.78 31.1082 103.119 30.6133 102.649 29.9647C102.18 29.3162 101.945 28.5055 101.945 27.5327C101.945 26.833 102.078 26.2101 102.342 25.6639C102.607 25.1178 102.982 24.657 103.469 24.2815C103.955 23.9061 104.535 23.6202 105.209 23.4239C105.883 23.2277 106.63 23.1295 107.449 23.1295C108.115 23.1295 108.721 23.1978 109.267 23.3343C109.813 23.4709 110.317 23.6671 110.777 23.9231C110.846 22.9674 111.08 22.2719 111.481 21.8367C111.882 21.4015 112.433 21.1839 113.133 21.1839C113.593 21.1839 113.977 21.3162 114.285 21.5807C114.592 21.8453 114.745 22.225 114.745 22.7199C114.745 23.1637 114.6 23.5263 114.31 23.8079C114.02 24.0895 113.627 24.2303 113.133 24.2303C112.859 24.2303 112.603 24.1791 112.365 24.0767C112.126 23.9743 111.929 23.8207 111.776 23.6159H111.673V24.5375C112.066 24.8789 112.386 25.2885 112.633 25.7663C112.881 26.2442 113.005 26.833 113.005 27.5327C113.005 28.2325 112.868 28.8597 112.595 29.4143C112.322 29.969 111.942 30.4341 111.456 30.8095C110.969 31.185 110.385 31.4709 109.702 31.6671C109.019 31.8634 108.269 31.9615 107.449 31.9615C106.852 31.9615 106.255 31.8933 105.657 31.7567C105.367 31.8933 105.128 32.0767 104.941 32.3071C104.753 32.5375 104.659 32.7893 104.659 33.0623C104.659 33.4378 104.8 33.7151 105.081 33.8943C105.363 34.0735 105.828 34.1631 106.477 34.1631H109.472C111.23 34.1631 112.493 34.4874 113.261 35.1359C114.029 35.7845 114.413 36.6719 114.413 37.7983C114.413 39.1807 113.832 40.2645 112.672 41.0495ZM107.475 30.3999C106.007 30.3999 105.273 29.5807 105.273 27.9423V27.1743C105.273 25.5359 106.007 24.7167 107.475 24.7167C108.943 24.7167 109.677 25.5359 109.677 27.1743V27.9423C109.677 29.5807 108.943 30.3999 107.475 30.3999ZM106.835 40.6911H108.345C109.421 40.6911 110.235 40.529 110.79 40.2047C111.345 39.8805 111.622 39.4026 111.622 38.7711C111.622 38.1738 111.422 37.7599 111.021 37.5295C110.619 37.2991 110.001 37.1839 109.165 37.1839H104.915C104.574 37.3887 104.322 37.6319 104.16 37.9135C103.998 38.1951 103.917 38.5407 103.917 38.9503C103.917 40.1109 104.889 40.6911 106.835 40.6911ZM123.193 36.7999V35.2639H121.043V27.4815C121.043 27.1743 121.115 26.8671 121.261 26.5599C121.406 26.2527 121.593 25.9754 121.824 25.7279C122.054 25.4805 122.314 25.2757 122.605 25.1135C122.895 24.9514 123.185 24.8703 123.475 24.8703C123.646 24.8703 123.765 24.8789 123.833 24.8959V24.9983C123.697 25.0495 123.577 25.169 123.475 25.3567C123.373 25.5445 123.321 25.7578 123.321 25.9967C123.321 26.4405 123.475 26.8159 123.782 27.1231C124.089 27.4303 124.533 27.5839 125.113 27.5839C125.694 27.5839 126.146 27.4047 126.47 27.0463C126.794 26.6879 126.957 26.1845 126.957 25.5359C126.957 24.785 126.722 24.1962 126.253 23.7695C125.783 23.3429 125.139 23.1295 124.32 23.1295C123.893 23.1295 123.509 23.1978 123.168 23.3343C122.826 23.4709 122.523 23.6543 122.259 23.8847C121.994 24.1151 121.768 24.3797 121.581 24.6783C121.393 24.977 121.239 25.2885 121.12 25.6127H120.992V23.1295L116.051 24.1535V25.4335L117.689 25.7663V35.2639H116.051V36.7999H123.193ZM133.062 20.7743C132.712 21.1327 132.222 21.3119 131.59 21.3119C130.959 21.3119 130.468 21.1327 130.118 20.7743C129.768 20.4159 129.593 19.9466 129.593 19.3663V19.2383C129.593 18.6581 129.768 18.1887 130.118 17.8303C130.468 17.4719 130.959 17.2927 131.59 17.2927C132.222 17.2927 132.712 17.4719 133.062 17.8303C133.412 18.1887 133.587 18.6581 133.587 19.2383V19.3663C133.587 19.9466 133.412 20.4159 133.062 20.7743ZM134.918 36.7999V35.2639H133.28V23.1295L128.288 24.1535V25.4335L129.926 25.7663V35.2639H128.288V36.7999H134.918ZM143.187 35.2639V36.7999H136.71V35.2639H138.349V25.7663L136.71 25.4335V24.1535L141.651 23.1295V25.6127H141.779C141.898 25.2885 142.065 24.977 142.278 24.6783C142.491 24.3797 142.752 24.1151 143.059 23.8847C143.366 23.6543 143.729 23.4709 144.147 23.3343C144.565 23.1978 145.039 23.1295 145.568 23.1295C146.694 23.1295 147.573 23.3429 148.205 23.7695C148.836 24.1962 149.271 24.8362 149.51 25.6895H149.613C149.749 25.3653 149.933 25.0495 150.163 24.7423C150.393 24.4351 150.675 24.1621 151.008 23.9231C151.341 23.6842 151.725 23.4922 152.16 23.3471C152.595 23.2021 153.094 23.1295 153.657 23.1295C155.227 23.1295 156.341 23.5434 156.998 24.3711C157.655 25.1989 157.984 26.4405 157.984 28.0959V35.2639H159.622V36.7999H153.145V35.2639H154.63V28.2495C154.63 27.2426 154.451 26.513 154.093 26.0607C153.734 25.6085 153.145 25.3823 152.326 25.3823C152.019 25.3823 151.716 25.425 151.417 25.5103C151.119 25.5957 150.854 25.7279 150.624 25.9071C150.393 26.0863 150.206 26.3167 150.061 26.5983C149.915 26.8799 149.843 27.2085 149.843 27.5839V35.2639H151.328V36.7999H145.005V35.2639H146.489V28.2495C146.489 27.2426 146.314 26.513 145.965 26.0607C145.615 25.6085 145.039 25.3823 144.237 25.3823C143.912 25.3823 143.597 25.425 143.289 25.5103C142.982 25.5957 142.713 25.7279 142.483 25.9071C142.253 26.0863 142.065 26.3167 141.92 26.5983C141.775 26.8799 141.702 27.2085 141.702 27.5839V35.2639H143.187Z" fill="#0A0A52"/>
</svg>
