<svg width="60" height="61" viewBox="0 0 60 61" fill="none" xmlns="http://www.w3.org/2000/svg">
<g clip-path="url(#clip0)">
<path d="M54.9998 1.05615H37.0001C34.2398 1.05936 32.0032 3.29599 32 6.0563V11.056H11.9998V9.05603C11.9998 5.74228 9.31366 3.05612 5.99991 3.05612C2.68616 3.05612 0 5.74228 0 9.05603V53.0563C0.00320435 56.3687 2.68753 59.053 5.99991 59.0562H50.0002C53.3125 59.053 55.9969 56.3687 56.0001 53.0563V50.9561C58.3264 50.4777 59.9968 48.431 60 46.0562V6.0563C59.9968 3.29599 57.7602 1.05936 54.9998 1.05615V1.05615ZM37.0001 3.05612H54.9998C56.657 3.05612 58 4.3992 58 6.0563V9.05603H33.9999V6.0563C33.9999 4.3992 35.343 3.05612 37.0001 3.05612ZM58 38.0563H33.9999V11.056H58V38.0563ZM32 22.5623L21.0631 18.0561H32V22.5623ZM30.3749 24.056L17.1259 29.5153C17.0467 29.3748 17.0032 29.2173 17 29.0562V19.0563C17.0032 18.8952 17.0467 18.7373 17.1259 18.5972L30.3749 24.056ZM32 25.5502V30.0559H21.0631L32 25.5502ZM5.99991 5.05609C8.20908 5.05609 9.99985 6.84686 9.99985 9.05603V44.5963C7.72842 42.5428 4.27139 42.5428 1.99997 44.5963V9.05603C1.99997 6.84686 3.79074 5.05609 5.99991 5.05609ZM50.0002 57.0562H5.99991C3.79074 57.0562 1.99997 55.2654 1.99997 53.0563V49.0563C1.99997 46.8472 3.79074 45.0559 5.99991 45.0559C8.20908 45.0559 9.99985 46.8472 9.99985 49.0563C9.99985 49.6084 10.4475 50.0561 11.0001 50.0561C11.5521 50.0561 11.9998 49.6084 11.9998 49.0563V13.056H32V16.0562H18.0002C17.4664 16.0589 16.9432 16.2054 16.4859 16.481C16.4731 16.481 16.4621 16.4951 16.4488 16.5011C16.3742 16.5473 16.301 16.594 16.2309 16.6462C16.1984 16.6696 16.1673 16.6947 16.138 16.7222C15.4221 17.2857 15.0032 18.1454 15 19.0563V29.0562C15.0032 29.9781 15.4321 30.847 16.1618 31.41C16.2286 31.4764 16.3046 31.5327 16.387 31.578C16.8677 31.8893 17.4275 32.055 18.0002 32.0564H32V35.0561H26.0001C25.4475 35.0561 24.9998 35.5038 24.9998 36.0563C24.9998 36.6084 25.4475 37.0561 26.0001 37.0561H32V40.0562H16.0002C15.4477 40.0562 15 40.5039 15 41.056C15 41.6085 15.4477 42.0562 16.0002 42.0562H32V46.0562C32.0032 48.816 34.2398 51.0526 37.0001 51.0563H54.0001V53.0563C54.0001 54.1169 53.5785 55.1345 52.8282 55.8848C52.0784 56.6346 51.0608 57.0562 50.0002 57.0562ZM54.9998 49.0563H37.0001C35.343 49.0563 33.9999 47.7128 33.9999 46.0562V40.0562H58V46.0562C58 47.7128 56.657 49.0563 54.9998 49.0563Z" fill="#E20000"/>
<path d="M43.9998 7.05606H48.0002C48.5522 7.05606 48.9999 6.60837 48.9999 6.0563C48.9999 5.50378 48.5522 5.05609 48.0002 5.05609H43.9998C43.4477 5.05609 43 5.50378 43 6.0563C43 6.60837 43.4477 7.05606 43.9998 7.05606Z" fill="#E20000"/>
<path d="M46.9999 41.056H45C43.8954 41.056 43 41.9514 43 43.056V45.056C43 46.1606 43.8954 47.0564 45 47.0564H46.9999C48.1045 47.0564 48.9999 46.1606 48.9999 45.056V43.056C48.9999 41.9514 48.1045 41.056 46.9999 41.056ZM45 45.056V43.056H46.9999V45.056H45Z" fill="#E20000"/>
<path d="M36.6743 25.5419C36.688 25.5561 36.704 25.5662 36.7191 25.579C37.0762 25.8853 37.5298 26.0542 38 26.056H54.0002C54.4712 26.0537 54.9267 25.8839 55.2842 25.5772C55.2979 25.5653 55.3121 25.5552 55.3259 25.5419C55.753 25.1661 55.9983 24.625 56.0002 24.056V15.0559C55.9983 14.443 55.7141 13.8653 55.2293 13.4899L55.2032 13.468C54.858 13.2025 54.4355 13.0578 54.0002 13.056H38C37.5656 13.0587 37.144 13.2043 36.8002 13.4702L36.7791 13.4872C36.2907 13.8616 36.0032 14.4407 36 15.0559V24.056C36.0018 24.625 36.2472 25.1661 36.6743 25.5419ZM54.0002 23.271L47.9193 19.5562L54.0002 15.8424V23.271ZM51.45 24.056H40.5502L46.0003 20.7281L51.45 24.056ZM46.0003 18.3843L40.5502 15.0559H51.45L46.0003 18.3843ZM44.0809 19.5562L38 23.2701V15.8424L44.0809 19.5562Z" fill="#E20000"/>
<path d="M37.9998 30.0559H41.9997C42.5522 30.0559 42.9999 29.6082 42.9999 29.0562C42.9999 28.5037 42.5522 28.056 41.9997 28.056H37.9998C37.4477 28.056 37 28.5037 37 29.0562C37 29.6082 37.4477 30.0559 37.9998 30.0559Z" fill="#E20000"/>
<path d="M54.9998 28.056H46.0002C45.4477 28.056 45 28.5037 45 29.0562C45 29.6082 45.4477 30.0559 46.0002 30.0559H54.9998C55.5524 30.0559 56.0001 29.6082 56.0001 29.0562C56.0001 28.5037 55.5524 28.056 54.9998 28.056Z" fill="#E20000"/>
<path d="M54.9997 32.0564H37.9998C37.4477 32.0564 37 32.5041 37 33.0562C37 33.6087 37.4477 34.0564 37.9998 34.0564H54.9997C55.5522 34.0564 55.9999 33.6087 55.9999 33.0562C55.9999 32.5041 55.5522 32.0564 54.9997 32.0564Z" fill="#E20000"/>
<path d="M16.0002 37.0561H20.9999C21.5524 37.0561 22.0001 36.6084 22.0001 36.0563C22.0001 35.5038 21.5524 35.0561 20.9999 35.0561H16.0002C15.4477 35.0561 15 35.5038 15 36.0563C15 36.6084 15.4477 37.0561 16.0002 37.0561Z" fill="#E20000"/>
</g>
<defs>
<clipPath id="clip0">
<rect width="60" height="60" fill="white" transform="translate(0 0.00146484)"/>
</clipPath>
</defs>
</svg>
