<svg width="60" height="61" viewBox="0 0 60 61" fill="none" xmlns="http://www.w3.org/2000/svg">
<g clip-path="url(#clip0)">
<path d="M41.6223 46.252C41.2241 45.8385 40.4893 45.72 39.9492 46.2367C39.9455 46.2404 39.9416 46.2441 39.9377 46.2479C39.4048 46.7721 39.5011 47.5101 39.9022 47.9207C40.1153 48.1389 40.4227 48.2733 40.7446 48.2733C41.0288 48.2733 41.324 48.1687 41.5756 47.9246C42.1122 47.4042 42.0209 46.6653 41.6223 46.252Z" fill="#E20000"/>
<path d="M52.2328 23.6922C52.0078 23.0853 51.3339 22.7758 50.727 23.0003C50.1202 23.2251 49.8104 23.8991 50.0352 24.506C51.0468 27.237 51.5596 30.1123 51.5596 33.0522C51.5596 46.6199 40.5213 57.658 26.9538 57.658C21.9192 57.658 17.0794 56.1484 12.9574 53.2923C12.4257 52.9237 11.6955 53.056 11.327 53.5881C10.9583 54.12 11.0907 54.8499 11.6227 55.2185C16.1387 58.3475 21.44 60.0014 26.9539 60.0014C34.1523 60.0014 40.9198 57.1981 46.0099 52.108C51.1 47.018 53.9032 40.2504 53.9032 33.052C53.903 29.8336 53.3409 26.6844 52.2328 23.6922Z" fill="#E20000"/>
<path d="M36.028 7.66916C33.1209 6.62971 30.0678 6.10272 26.9532 6.10272C19.7548 6.10272 12.9873 8.90596 7.89717 13.9959C2.80714 19.0861 0.00390625 25.8537 0.00390625 33.052C0.00390625 38.6343 1.69562 43.99 4.89647 48.5401C5.12452 48.8645 5.48722 49.0378 5.85589 49.0378C6.08874 49.0378 6.32393 48.9685 6.52889 48.8243C7.05823 48.4519 7.18549 47.721 6.81319 47.1917C3.89159 43.0384 2.3473 38.149 2.3473 33.0519C2.3473 19.4842 13.3855 8.44612 26.9531 8.44612C29.7982 8.44612 32.5858 8.92705 35.2388 9.87568C35.8481 10.0937 36.5189 9.77631 36.7366 9.16693C36.9546 8.55768 36.6372 7.88713 36.028 7.66916Z" fill="#E20000"/>
<path d="M59.9063 9.71864C59.7249 9.28071 59.2977 8.99536 58.8237 8.99536H52.667L53.3291 8.33325C53.7866 7.87575 53.7866 7.13372 53.3291 6.6761C52.8715 6.21861 52.1297 6.21861 51.672 6.6761L51.0014 7.34665V1.17322C51.0014 0.699436 50.7159 0.272054 50.2782 0.090648C49.8402 -0.0907578 49.3362 0.00955444 49.0013 0.344593L38.6719 10.6739C38.4522 10.8937 38.3287 11.1917 38.3287 11.5025V15.5671C34.9489 13.3562 31.0525 12.1956 26.9531 12.1956C15.4529 12.1956 6.09668 21.5519 6.09668 33.052C6.09668 44.5522 15.4529 53.9084 26.9531 53.9084C30.7701 53.9084 34.5044 52.8675 37.7522 50.8982C38.3056 50.5627 38.4821 49.8422 38.1467 49.2888C37.8113 48.7355 37.0907 48.5587 36.5374 48.8943C33.6558 50.6415 30.3417 51.5649 26.9531 51.5649C16.745 51.5649 8.44007 43.2601 8.44007 33.0519C8.44007 22.8437 16.745 14.5389 26.9531 14.5389C31.1214 14.5389 35.0528 15.89 38.3287 18.4459V20.0192L36.1934 22.1544C33.6998 20.0367 30.4734 18.7569 26.9531 18.7569C19.0708 18.7569 12.6582 25.1695 12.6582 33.0518C12.6582 40.934 19.0708 47.3466 26.9531 47.3466C34.8353 47.3466 41.2479 40.934 41.2479 33.0518C41.2479 29.5316 39.9683 26.3052 37.8505 23.8115L39.9942 21.6678H41.553C44.079 24.9051 45.466 28.9322 45.466 33.0518C45.466 36.5061 44.5087 39.8754 42.6977 42.7951C42.3565 43.3449 42.5259 44.0673 43.0759 44.4084C43.2683 44.5277 43.4815 44.5845 43.6924 44.5845C44.0845 44.5845 44.4674 44.3878 44.6893 44.0304C46.7307 40.7394 47.8095 36.9431 47.8095 33.0518C47.8095 29.0045 46.6206 25.0362 44.4288 21.6678H48.4941C48.8049 21.6678 49.1028 21.5442 49.3226 21.3245L59.652 10.9952C59.9874 10.6605 60.0876 10.1564 59.9063 9.71864ZM38.9048 33.052C38.9048 39.6421 33.5433 45.0035 26.9533 45.0035C20.3633 45.0035 15.0019 39.6421 15.0019 33.052C15.0019 26.462 20.3633 21.1006 26.9533 21.1006C29.8273 21.1006 32.4673 22.1204 34.5312 23.8171L31.8626 26.4857C30.4931 25.459 28.793 24.8501 26.9534 24.8501C22.4308 24.8501 18.7515 28.5295 18.7515 33.052C18.7515 37.5746 22.4309 41.254 26.9534 41.254C31.476 41.254 35.1554 37.5745 35.1554 33.052C35.1554 31.2124 34.5465 29.5124 33.5198 28.1427L36.1884 25.4741C37.8849 27.538 38.9048 30.178 38.9048 33.052ZM26.1248 33.8807C26.3537 34.1095 26.6534 34.2239 26.9533 34.2239C27.2532 34.2239 27.553 34.1095 27.7818 33.8807L31.8387 29.8238C32.4529 30.7501 32.8119 31.8598 32.8119 33.052C32.8119 36.2824 30.1837 38.9106 26.9533 38.9106C23.7229 38.9106 21.0948 36.2824 21.0948 33.052C21.0948 29.8216 23.7229 27.1935 26.9533 27.1935C28.1457 27.1935 29.2552 27.5524 30.1817 28.1666L26.1248 32.2235C25.6672 32.681 25.6672 33.4229 26.1248 33.8807ZM40.6723 17.6759V11.9879L48.6582 4.00201V9.69004L40.6723 17.6759ZM48.0091 19.3246H42.3379L50.3237 11.3388H55.9949L48.0091 19.3246Z" fill="#E20000"/>
<path d="M9.53129 50.427C9.31343 50.2091 9.01121 50.0836 8.70301 50.0836C8.39351 50.0836 8.09129 50.209 7.87461 50.427C7.65547 50.6449 7.53125 50.9472 7.53125 51.2554C7.53125 51.5636 7.65547 51.8658 7.87461 52.0838C8.09246 52.3017 8.39363 52.4271 8.70301 52.4271C9.01121 52.4271 9.31343 52.3017 9.53129 52.0838C9.74925 51.8658 9.87476 51.5636 9.87476 51.2554C9.87476 50.9472 9.74937 50.6461 9.53129 50.427Z" fill="#E20000"/>
</g>
<defs>
<clipPath id="clip0">
<rect width="60" height="60" fill="white" transform="translate(0 0.00146484)"/>
</clipPath>
</defs>
</svg>
